<svg width="13" height="13" viewBox="0 0 13 13" fill="none" xmlns="http://www.w3.org/2000/svg">
<path d="M11.7298 9.04948V10.668C11.7304 10.8183 11.6996 10.967 11.6394 11.1046C11.5792 11.2423 11.4909 11.3659 11.3802 11.4675C11.2695 11.569 11.1388 11.6464 10.9964 11.6945C10.8541 11.7427 10.7033 11.7605 10.5536 11.747C8.89348 11.5666 7.29879 10.9993 5.8977 10.0907C4.59416 9.2624 3.48898 8.15723 2.66066 6.85369C1.74889 5.44623 1.18147 3.84378 1.00438 2.17617C0.990897 2.02698 1.00863 1.87662 1.05644 1.73466C1.10426 1.59269 1.18111 1.46224 1.2821 1.35161C1.38309 1.24097 1.50601 1.15258 1.64304 1.09205C1.78007 1.03152 1.9282 1.00019 2.078 1.00005H3.69651C3.95834 0.997475 4.21217 1.09019 4.41069 1.26092C4.60921 1.43165 4.73888 1.66874 4.77552 1.928C4.84384 2.44596 4.97053 2.95453 5.15318 3.44401C5.22577 3.63712 5.24148 3.84698 5.19845 4.04874C5.15542 4.25049 5.05545 4.43569 4.9104 4.58237L4.22523 5.26754C4.99325 6.61822 6.11159 7.73656 7.46226 8.50458L8.14744 7.81941C8.29412 7.67435 8.47932 7.57439 8.68107 7.53136C8.88283 7.48833 9.09269 7.50404 9.28579 7.57663C9.77527 7.75928 10.2838 7.88597 10.8018 7.95428C11.0639 7.99126 11.3032 8.12326 11.4743 8.32519C11.6454 8.52712 11.7363 8.78489 11.7298 9.04948Z" stroke="#1A1A1A" stroke-width="1.2" stroke-linecap="round" stroke-linejoin="round"/>
</svg>
